<svg xmlns="http://www.w3.org/2000/svg" width="24" height="24" viewBox="0 0 24 24" fill="none" aria-hidden="true">
  <path
    d="M6 18.1176C6 19.1529 6.9 20 8 20H16C17.1 20 18 19.1529 18 18.1176V9.64706C18 8.61176 17.1 7.76471 16 7.76471H8C6.9 7.76471 6 8.61176 6 9.64706V18.1176ZM18 4.94118H15.5L14.79 4.27294C14.61 4.10353 14.35 4 14.09 4H9.91C9.65 4 9.39 4.10353 9.21 4.27294L8.5 4.94118H6C5.45 4.94118 5 5.36471 5 5.88235C5 6.4 5.45 6.82353 6 6.82353H18C18.55 6.82353 19 6.4 19 5.88235C19 5.36471 18.55 4.94118 18 4.94118Z"
    fill="#2D3149"
  />
</svg>
