<!-- Figma file 4JIDtt55wvWXtsAX8nrBC5, node 1:13640 Group 33710 (interview subtitles tab) -->
<svg xmlns="http://www.w3.org/2000/svg" width="16" height="16" viewBox="0 0 16 16" fill="none" aria-hidden="true">
  <rect class="ir-tab-subtitles__plate" x="0.5" y="0.5" width="15" height="15" rx="1.5" fill="#21243D" stroke="#21243D" />
  <path
    class="ir-tab-subtitles__glyph"
    d="M8.00098 12.5905C8.27699 12.5905 8.50077 12.8146 8.50098 13.0905C8.50098 13.3667 8.27712 13.5905 8.00098 13.5905H2.91016C2.6341 13.5904 2.41016 13.3666 2.41016 13.0905C2.41036 12.8146 2.63423 12.5907 2.91016 12.5905H8.00098ZM12.5459 12.5905C12.8219 12.5905 13.0457 12.8146 13.0459 13.0905C13.0459 13.3667 12.822 13.5905 12.5459 13.5905H10.1826C9.90665 13.5903 9.68262 13.3666 9.68262 13.0905C9.68282 12.8147 9.90678 12.5908 10.1826 12.5905H12.5459ZM8.91016 10.4089C9.18624 10.4089 9.41006 10.6328 9.41016 10.9089C9.41016 11.185 9.1863 11.4089 8.91016 11.4089H2.91016C2.6341 11.4088 2.41016 11.185 2.41016 10.9089C2.41025 10.6329 2.63416 10.409 2.91016 10.4089H8.91016ZM12.5459 10.4089C12.822 10.4089 13.0458 10.6328 13.0459 10.9089C13.0459 11.185 12.822 11.4089 12.5459 11.4089H11.0918C10.8157 11.4089 10.5918 11.185 10.5918 10.9089C10.5919 10.6328 10.8157 10.4089 11.0918 10.4089H12.5459ZM10.9229 9.15402H9.51953L9.05078 7.44406H6.90039L6.43164 9.15402H5.08203L7.21484 2.48508H8.79004L10.9229 9.15402ZM7.95312 3.50168C7.77314 4.23063 7.58373 4.98645 7.38574 5.67941L7.18848 6.40891H8.77246L8.57422 5.67941C8.36725 4.98648 8.18723 4.2126 7.98926 3.50168H7.95312Z"
    fill="#fff"
  />
</svg>
