<!-- Figma file 4JIDtt55wvWXtsAX8nrBC5, node 1:13636 Vector (mindmap tab) -->
<svg xmlns="http://www.w3.org/2000/svg" width="16" height="16" viewBox="0 0 16 16" fill="none" aria-hidden="true">
  <path
    d="M10.6667 6.26666L11.6667 5.26666C11.8 5.26666 11.8667 5.33334 12 5.33334H14.6667C15.4 5.33334 16 4.73334 16 4V1.33334C16 0.6 15.4 0 14.6667 0H12C11.2667 0 10.6667 0.6 10.6667 1.33334V4C10.6667 4.13334 10.6667 4.2 10.7333 4.33334L9.73334 5.33334H6.26666L5.26666 4.33334C5.33334 4.2 5.33334 4.13334 5.33334 4V1.33334C5.33334 0.6 4.73334 0 4 0H1.33334C0.6 0 0 0.6 0 1.33334V4C0 4.73334 0.6 5.33334 1.33334 5.33334H4C4.13334 5.33334 4.2 5.33334 4.33334 5.26666L5.33334 6.26666V9.73334L4.33334 10.7333C4.2 10.6667 4.13334 10.6667 4 10.6667H1.33334C0.6 10.6667 0 11.2667 0 12V14.6667C0 15.4 0.6 16 1.33334 16H4C4.73334 16 5.33334 15.4 5.33334 14.6667V12C5.33334 11.8667 5.33334 11.8 5.26666 11.6667L6.26666 10.6667H9.73334L10.7333 11.6667C10.7333 11.8 10.6667 11.8667 10.6667 12V14.6667C10.6667 15.4 11.2667 16 12 16H14.6667C15.4 16 16 15.4 16 14.6667V12C16 11.2667 15.4 10.6667 14.6667 10.6667H12C11.8667 10.6667 11.8 10.6667 11.6667 10.7333L10.6667 9.73334V6.26666Z"
    fill="currentColor"
  />
</svg>
