<!-- Figma file 4JIDtt55wvWXtsAX8nrBC5, node 1:13630 Union (realtime summary tab) -->
<svg xmlns="http://www.w3.org/2000/svg" width="16" height="16" viewBox="0 0 16 16" fill="none" aria-hidden="true">
  <path
    fill-rule="evenodd"
    clip-rule="evenodd"
    d="M15.796 11.2324C15.9948 11.3406 16.0598 11.5746 15.9405 11.7548C15.905 11.8084 15.855 11.8535 15.796 11.8857L8.43176 15.8916C8.16601 16.036 7.83423 16.036 7.56848 15.8916L0.204219 11.8857C0.00551552 11.7776 -0.0593389 11.5435 0.0596882 11.3632C0.0951367 11.3096 0.145127 11.2645 0.204219 11.2324L1.21301 10.6836L8.00012 14.3759L14.7872 10.6836L15.796 11.2324ZM15.796 7.65426C15.9947 7.76242 16.0597 7.99646 15.9405 8.17672C15.905 8.23024 15.855 8.27538 15.796 8.30758L8.00012 12.5488L0.204219 8.30758C0.00547881 8.19944 -0.0594287 7.96536 0.0596882 7.78512C0.0951367 7.73152 0.145127 7.68638 0.204219 7.65426L1.21301 7.10543L8.00012 10.7978L14.7872 7.10543L15.796 7.65426ZM7.56848 0.10836C7.83427 -0.036119 8.16597 -0.036121 8.43176 0.10836L15.796 4.11422C15.9947 4.22234 16.0596 4.45644 15.9405 4.63668C15.905 4.69026 15.855 4.7354 15.796 4.76754L8.00012 9.00875L0.204219 4.76754C0.00545168 4.65941 -0.0594951 4.42532 0.0596882 4.24508C0.0951367 4.1915 0.145127 4.14636 0.204219 4.11422L7.56848 0.10836Z"
    fill="currentColor"
  />
</svg>
