<svg preserveAspectRatio="none" width="100%" height="100%" overflow="visible" style="display: block;" viewBox="0 0 11.3488 14.0273" fill="none" xmlns="http://www.w3.org/2000/svg">
<path d="M5.67443 8.01367C8.2298 8.01372 9.91534 9.42974 10.9147 10.7266C11.4735 11.4521 11.4635 12.3135 11.0524 12.9746C10.6552 13.6131 9.91406 14.0272 9.07189 14.0273H2.27697C1.43479 14.0272 0.693697 13.6131 0.296498 12.9746C-0.114653 12.3134 -0.124695 11.4521 0.434193 10.7266C1.43353 9.42972 3.11899 8.01367 5.67443 8.01367ZM5.93029 0C7.91184 0 9.51813 1.60635 9.51818 3.58789C9.51818 5.56947 7.91187 7.17578 5.93029 7.17578C3.94885 7.17561 2.3424 5.56937 2.3424 3.58789C2.34244 1.60645 3.94887 0.000167751 5.93029 0Z" fill="white"/>
</svg>
