<svg preserveAspectRatio="none" width="100%" height="100%" overflow="visible" style="display: block;" viewBox="0 0 11.3488 14.0273" fill="none" xmlns="http://www.w3.org/2000/svg">
<path d="M5.67438 8.01367C8.22982 8.01367 9.91528 9.42972 10.9146 10.7266C11.4735 11.4521 11.4635 12.3134 11.0523 12.9746C10.6551 13.613 9.91401 14.0272 9.07184 14.0273H2.27692C1.43476 14.0272 0.693611 13.6131 0.296454 12.9746C-0.114673 12.3135 -0.12464 11.4521 0.434149 10.7266C1.43347 9.42974 3.11903 8.01373 5.67438 8.01367ZM5.93122 0C7.91259 0.00021632 9.51906 1.60648 9.51911 3.58789C9.51911 5.56934 7.91262 7.17556 5.93122 7.17578C3.94964 7.17578 2.34333 5.56947 2.34333 3.58789C2.34337 1.60635 3.94966 0 5.93122 0Z" fill="#2D3149"/>
</svg>
