<svg width="24" height="24" viewBox="0 0 24 24" fill="none" xmlns="http://www.w3.org/2000/svg">
<g clip-path="url(#clip0_1_8765)">
<path d="M6.48041 17.731H17.4118V11.69H19.1379V18.594C19.1379 18.8229 19.0469 19.0424 18.8851 19.2043C18.7232 19.3661 18.5037 19.457 18.2748 19.457H5.6174C5.38852 19.457 5.16901 19.3661 5.00716 19.2043C4.84532 19.0424 4.75439 18.8229 4.75439 18.594V8.81326H6.48041V17.731Z" fill="#2D3149"/>
<path d="M6.48034 16.6762L6.48034 6.70371L4.75433 5.8407L4.75433 17.5392L6.48034 16.6762Z" fill="#2D3149"/>
<path d="M5.0071 5.23046C4.84525 5.39231 4.75433 5.61182 4.75433 5.8407L6.48034 6.70371H11.5625V4.97769H5.61734C5.38845 4.97769 5.16894 5.06862 5.0071 5.23046Z" fill="#2D3149"/>
<path d="M9.82471 12.3642V14.3869H11.8474L17.8129 8.42132L15.7902 6.39865L9.82471 12.3642ZM19.7547 6.47955L17.732 4.45688L16.3674 5.8269L18.3901 7.84958L19.7547 6.47955Z" fill="#2D3149"/>
</g>
<defs>
<clipPath id="clip0_1_8765">
<rect width="24" height="24" fill="white"/>
</clipPath>
</defs>
</svg>
