<svg xmlns="http://www.w3.org/2000/svg" fill="none" viewBox="0 0 14 25"><path fill="#fff" d="M7 17.98c.55 0 1 .45 1 1v3.14h3.71c.55 0 1 .45 1 1s-.45 1-1 1H2.29c-.55 0-1-.45-1-1s.45-1 1-1H6v-3.14c0-.55.45-1 1-1"/><path stroke="#fff" stroke-linecap="round" stroke-width="2" d="M1 11.99s-.42 6.49 6 6.49 5.99-6.49 5.99-6.49"/><path fill="#2356e6" d="M4 6.98c0-1.65 1.34-3 3-3s3 1.35 3 3v4c0 1.66-1.34 3-3 3s-3-1.34-3-3z"/><path fill="url(#a)" fill-opacity=".75" stroke="#fff" stroke-width=".5" d="M7 .25c2.7 0 4.89 2.19 4.89 4.89v7.7a4.89 4.89 0 0 1-9.78 0v-7.7C2.11 2.44 4.3.25 7 .25Z"/><path fill="#3163f0" d="M10.44 7.71c.35 0 .64.29.64.64s-.29.64-.64.64H8.72c-.35 0-.64-.29-.64-.64 0-.36.29-.64.64-.64zm0-1.72a.644.644 0 0 1 0 1.29H8.72a.644.644 0 0 1 0-1.29zm0-1.71a.644.644 0 0 1 0 1.29H8.72a.644.644 0 0 1 0-1.29z"/><defs><linearGradient id="a" x1="7" x2="7" y1="0" y2="17.98"><stop stop-color="#e6f0ff"/><stop offset="1" stop-color="#81b2ff"/></linearGradient></defs></svg>