<svg preserveAspectRatio="xMidYMid meet" viewBox="0 0 16 16" fill="none" xmlns="http://www.w3.org/2000/svg">
<g>
<path d="M14 0C15.1046 0 16 0.895431 16 2V14C16 15.1046 15.1046 16 14 16H2C0.895431 16 0 15.1046 0 14V2C0 0.895431 0.895431 0 2 0H14ZM8 2.28613C7.36883 2.28615 6.85742 2.79754 6.85742 3.42871V6.85742H3.42871C2.79754 6.85744 2.28613 7.36883 2.28613 8C2.28613 8.63117 2.79755 9.14256 3.42871 9.14258H6.85742V12.5713C6.85742 13.2025 7.36883 13.7138 8 13.7139C8.63118 13.7139 9.14258 13.2025 9.14258 12.5713V9.14258H12.5713C13.2025 9.14258 13.7148 8.63118 13.7148 8C13.7148 7.36882 13.2025 6.85742 12.5713 6.85742H9.14258V3.42871C9.14258 2.79753 8.63118 2.28613 8 2.28613Z" fill="white"/>
</g>
</svg>
