<svg viewBox="0 0 20 16" fill="none" xmlns="http://www.w3.org/2000/svg">
<rect y="2.29" width="19.43" height="13.71" rx="1" fill="white" fill-opacity="0.5"/>
<path d="M7.28 9.14H16.22M7.28 12.57H11.75" stroke="white" stroke-width="1.5" stroke-linecap="round"/>
<path d="M2 0.25H8.99C9.47 0.25 9.8 0.25 10.05 0.28C10.3 0.32 10.43 0.38 10.52 0.47C10.61 0.56 10.67 0.69 10.71 0.94C10.74 1.19 10.74 1.52 10.74 2V3.71C10.74 4.19 10.74 4.53 10.71 4.78C10.67 5.02 10.61 5.15 10.52 5.24C10.43 5.34 10.3 5.4 10.05 5.43C9.8 5.46 9.47 5.46 8.99 5.46H0.25V2C0.25 1.52 0.25 1.19 0.28 0.94C0.32 0.69 0.38 0.56 0.47 0.47C0.56 0.38 0.69 0.32 0.94 0.28C1.19 0.25 1.52 0.25 2 0.25Z" fill="white" fill-opacity="0.4" stroke="white" stroke-width="0.5"/>
</svg>
