<svg viewBox="0 0 14 25" fill="none" xmlns="http://www.w3.org/2000/svg">
<path d="M7 17.98C7.55 17.98 8 18.43 8 18.98V22.12H11.71C12.26 22.12 12.71 22.57 12.71 23.12C12.71 23.67 12.26 24.12 11.71 24.12H2.29C1.74 24.12 1.29 23.67 1.29 23.12C1.29 22.57 1.74 22.12 2.29 22.12H6V18.98C6 18.43 6.45 17.98 7 17.98Z" fill="white"/>
<path d="M1 11.99C1 11.99 0.58 18.48 7 18.48C13.42 18.48 12.99 11.99 12.99 11.99" stroke="white" stroke-width="2" stroke-linecap="round"/>
<path d="M4 6.98C4 5.33 5.34 3.98 7 3.98C8.66 3.98 10 5.33 10 6.98V10.98C10 12.64 8.66 13.98 7 13.98C5.34 13.98 4 12.64 4 10.98V6.98Z" fill="#2356E6"/>
<path d="M7 0.25C9.7 0.25 11.89 2.44 11.89 5.14V12.84C11.89 15.54 9.7 17.73 7 17.73C4.3 17.73 2.11 15.54 2.11 12.84V5.14C2.11 2.44 4.3 0.25 7 0.25Z" fill="url(#micGrad)" fill-opacity="0.75" stroke="white" stroke-width="0.5"/>
<path d="M10.44 7.71C10.79 7.71 11.08 8 11.08 8.35C11.08 8.7 10.79 8.99 10.44 8.99H8.72C8.37 8.99 8.08 8.7 8.08 8.35C8.08 7.99 8.37 7.71 8.72 7.71H10.44ZM10.44 5.99C10.79 5.99 11.08 6.28 11.08 6.64C11.08 6.99 10.79 7.28 10.44 7.28H8.72C8.37 7.28 8.08 6.99 8.08 6.64C8.08 6.28 8.37 5.99 8.72 5.99H10.44ZM10.44 4.28C10.79 4.28 11.08 4.57 11.08 4.92C11.08 5.28 10.79 5.57 10.44 5.57H8.72C8.37 5.57 8.08 5.28 8.08 4.92C8.08 4.57 8.37 4.28 8.72 4.28H10.44Z" fill="#3163F0"/>
<defs><linearGradient id="micGrad" x1="7" y1="0" x2="7" y2="17.98"><stop stop-color="#E6F0FF"/><stop offset="1" stop-color="#81B2FF"/></linearGradient></defs>
</svg>
