<svg xmlns="http://www.w3.org/2000/svg" width="24" height="24" fill="none" viewBox="0 0 24 24"><g fill="#2d3149" clip-path="url(#a)"><path d="M6.48 17.731h10.932V11.69h1.726v6.904a.863.863 0 0 1-.863.863H5.617a.863.863 0 0 1-.863-.863v-9.78H6.48z"/><path d="M6.48 16.676V6.704L4.754 5.84v11.698z"/><path d="M5.007 5.23a.86.86 0 0 0-.253.61l1.726.864h5.083V4.978H5.617a.86.86 0 0 0-.61.252M9.825 12.364v2.023h2.022l5.966-5.966L15.79 6.4zm9.93-5.884-2.023-2.023-1.365 1.37L18.39 7.85z"/></g><defs><clipPath id="a"><path fill="#fff" d="M0 0h24v24H0z"/></clipPath></defs></svg>