<svg xmlns="http://www.w3.org/2000/svg" fill="none" viewBox="0 0 25 24"><path fill="url(#a)" d="m15.64 2.6 5.31 3.76c2.31 1.63 2.72 3.98 1.09 6.28l-3.75 5.31c-1.64 2.31-3.99 2.72-6.3 1.08l-5.3-3.75C4.38 13.65 3.97 11.3 5.6 9l3.76-5.32c1.62-2.31 3.97-2.71 6.28-1.08"/><path fill="#7db0ff" fill-opacity=".4" stroke="#fff" stroke-width=".5" d="M5.23 6.25h7.55c1.59 0 2.82.47 3.66 1.31s1.31 2.08 1.31 3.67v7.54c0 1.59-.47 2.83-1.31 3.67s-2.08 1.31-3.67 1.31H5.23c-1.59 0-2.83-.47-3.67-1.31S.25 20.35.25 18.76v-7.53c0-1.59.47-2.83 1.31-3.67s2.08-1.31 3.67-1.31Z"/><rect width="2" height="7" x="11" y="12" fill="#fff" rx="1" transform="rotate(45 11 12)"/><defs><linearGradient id="a" x1="15.53" x2="2.75" y1="21.53" y2="9.94"><stop stop-color="#2d64f9"/><stop offset="1" stop-color="#5781ff"/></linearGradient></defs></svg>