<svg xmlns="http://www.w3.org/2000/svg" width="24" height="24" fill="none" viewBox="0 0 24 24"><g clip-path="url(#a)"><path fill="#2d3149" d="M6 18.118C6 19.153 6.9 20 8 20h8c1.1 0 2-.847 2-1.882v-8.47c0-1.036-.9-1.883-2-1.883H8c-1.1 0-2 .847-2 1.882zM18 4.94h-2.5l-.71-.668c-.18-.17-.44-.273-.7-.273H9.91c-.26 0-.52.104-.7.273l-.71.668H6c-.55 0-1 .424-1 .941 0 .518.45.942 1 .942h12c.55 0 1-.424 1-.942 0-.517-.45-.94-1-.94"/></g><defs><clipPath id="a"><path fill="#fff" d="M0 0h24v24H0z"/></clipPath></defs></svg>