<svg xmlns="http://www.w3.org/2000/svg" fill="none" overflow="visible" preserveAspectRatio="none" style="display:block" viewBox="0 0 14.85 15.272"><g fill="#2036ca"><path stroke="#2036ca" stroke-width=".5" d="M6.328.25a6.079 6.079 0 1 0 .002 12.157A6.079 6.079 0 0 0 6.328.25Zm0 11.126A5.048 5.048 0 1 1 6.33 1.28a5.048 5.048 0 0 1-.002 10.096Z"/><path d="M13.13 14.977c.391.39 1.028.394 1.422.008a.987.987 0 0 0 .008-1.406l-.715.699zm-2.075-3.49-.715.7 2.79 2.79.715-.7.714-.698-2.79-2.79z"/></g></svg>