<svg preserveAspectRatio="none" width="100%" height="100%" overflow="visible" style="display: block;" viewBox="0 0 14 14" fill="none" xmlns="http://www.w3.org/2000/svg">
<g id="Icon / Outlined / Left">
<path id="Vector" d="M9.89872 2.98426V1.92742C9.89872 1.83582 9.79345 1.78523 9.72236 1.84129L3.55908 6.65516C3.50671 6.69588 3.46434 6.74802 3.43519 6.80762C3.40604 6.86721 3.39089 6.93267 3.39089 6.999C3.39089 7.06534 3.40604 7.1308 3.43519 7.19039C3.46434 7.24998 3.50671 7.30213 3.55908 7.34285L9.72236 12.1567C9.79482 12.2128 9.89872 12.1622 9.89872 12.0706V11.0137C9.89872 10.9468 9.86728 10.8825 9.81533 10.8415L4.89345 6.99969L9.81533 3.15652C9.86728 3.11551 9.89872 3.05125 9.89872 2.98426V2.98426Z" fill="var(--fill-0, #7D7D7D)"/>
</g>
</svg>
