<svg preserveAspectRatio="none" width="100%" height="100%" overflow="visible" style="display: block;" viewBox="0 0 14 14" fill="none" xmlns="http://www.w3.org/2000/svg">
<g id="Icon / Outlined / Right">
<path id="Vector" d="M10.4685 6.65548L4.30522 1.84161C4.28912 1.82893 4.26976 1.82105 4.24938 1.81888C4.229 1.8167 4.20842 1.82032 4.19 1.82931C4.17158 1.83831 4.15607 1.85232 4.14526 1.86973C4.13444 1.88714 4.12876 1.90725 4.12885 1.92774V2.98458C4.12885 3.05157 4.1603 3.11583 4.21225 3.15684L9.13411 7.00001L4.21225 10.8432C4.15893 10.8842 4.12885 10.9484 4.12885 11.0154V12.0723C4.12885 12.1639 4.23413 12.2145 4.30522 12.1584L10.4685 7.34454C10.5209 7.30368 10.5632 7.25141 10.5924 7.19171C10.6215 7.13201 10.6367 7.06645 10.6367 7.00001C10.6367 6.93357 10.6215 6.86801 10.5924 6.80831C10.5632 6.74861 10.5209 6.69634 10.4685 6.65548Z" fill="var(--fill-0, #21243D)"/>
</g>
</svg>
