<svg preserveAspectRatio="none" width="100%" height="100%" overflow="visible" style="display: block;" viewBox="0 0 14.85 15.2723" fill="none" xmlns="http://www.w3.org/2000/svg">
<g id="&#230;&#148;&#190;&#229;&#164;&#167;&#233;&#149;&#156;">
<path id="Vector" d="M6.32793 0.25C2.9715 0.25 0.25 2.97186 0.25 6.32874C0.25 9.68562 2.9715 12.4075 6.32793 12.4075C9.68436 12.4075 12.4059 9.68562 12.4059 6.32874C12.4059 2.97186 9.68436 0.25 6.32793 0.25ZM6.32793 11.3763C3.54131 11.3763 1.28108 9.11574 1.28108 6.32874C1.28108 3.54175 3.54131 1.28122 6.32793 1.28122C9.11456 1.28122 11.3748 3.54175 11.3748 6.32874C11.3748 9.11574 9.11456 11.3763 6.32793 11.3763Z" fill="var(--fill-0, white)" stroke="var(--stroke-1, white)" stroke-width="0.5"/>
<path id="Line 2" d="M13.13 14.9767C13.5207 15.3675 14.1573 15.3713 14.552 14.9854C14.9466 14.5994 14.9498 13.9697 14.5591 13.579L13.8445 14.2779L13.13 14.9767ZM11.0543 11.4873L10.3398 12.1862L13.13 14.9767L13.8445 14.2779L14.5591 13.579L11.7689 10.7884L11.0543 11.4873Z" fill="var(--stroke-0, white)"/>
</g>
</svg>
