<svg preserveAspectRatio="none" width="100%" height="100%" overflow="visible" style="display: block;" viewBox="0 0 24 24" fill="none" xmlns="http://www.w3.org/2000/svg">
<g id="Group 33706">
<g id="Vector">
</g>
<g id="Group">
<path id="Subtract" d="M11.8548 5.19587C12.0592 5.14481 12.2751 5.20508 12.4241 5.35407L20.5843 13.5132C20.8184 13.7475 20.8185 14.1276 20.5843 14.3619L14.3616 20.5845C14.1274 20.8188 13.7473 20.8187 13.513 20.5845L5.35382 12.4244C5.2048 12.2754 5.14451 12.0595 5.19562 11.855L6.43976 6.87653C6.49358 6.66182 6.66155 6.49379 6.87629 6.44001L11.8548 5.19587ZM10.2103 8.79645C9.81972 8.40623 9.18663 8.40603 8.79621 8.79645C8.40586 9.18688 8.40601 9.81999 8.79621 10.2105C9.18671 10.601 9.81974 10.601 10.2103 10.2105C10.6008 9.81999 10.6008 9.18698 10.2103 8.79645Z" fill="var(--fill-0, #2D3149)"/>
</g>
</g>
</svg>
