<svg xmlns="http://www.w3.org/2000/svg" fill="none" viewBox="0 0 36 36"><circle cx="18" cy="18" r="18" fill="#2036ca"/><path fill="#fff" d="M18.089 20.008c.116.01.283.034.457.123a1.2 1.2 0 0 1 .524.524c.089.174.113.341.122.457.008.1.01.215.01.31v3.156c0 .095-.002.21-.01.31-.01.116-.033.282-.122.457a1.2 1.2 0 0 1-.524.524 1.2 1.2 0 0 1-.457.123c-.1.008-.214.008-.31.008-2.302 0-4.604-.012-6.906 0-.057 0-.172 0-.28-.019a1.2 1.2 0 0 1-.993-1.254c.003-.472-.02-.954.062-1.421a4 4 0 0 1 3.244-3.245C13.252 20 13.648 20 14.23 20h3.55c.096 0 .21 0 .31.008m5.84.395c.387.113.736.314 1.022.578l.722-.408.727 1.232-.721.408c.092.379.092.774 0 1.153l.721.407-.727 1.232-.722-.407a2.56 2.56 0 0 1-1.022.577v.814h-1.456v-.814a2.56 2.56 0 0 1-1.023-.577l-.722.407-.727-1.232.721-.406a2.44 2.44 0 0 1 0-1.154l-.721-.408.727-1.232.722.408c.29-.268.64-.466 1.023-.578v-.813h1.456zm-.728 1.675a.74.74 0 0 0-.515.208.7.7 0 0 0-.213.503c0 .189.077.37.213.503a.737.737 0 0 0 1.03 0 .704.704 0 0 0 0-1.006.74.74 0 0 0-.515-.208M16.801 10a4.4 4.4 0 1 1-.001 8.802 4.4 4.4 0 0 1 0-8.802"/></svg>