<svg xmlns="http://www.w3.org/2000/svg" fill="none" viewBox="0 0 20 20"><path fill="#fff" d="M4.59 4.562a.91.91 0 0 0 .001-1.289l-.346-.346a.91.91 0 0 0-1.288 1.286l.346.347a.91.91 0 0 0 1.288.002M2.728 10a.913.913 0 0 0-.913-.913h-.9a.913.913 0 1 0 0 1.826h.9A.913.913 0 0 0 2.727 10M10.91.91a.91.91 0 1 0-1.818 0v.875a.91.91 0 1 0 1.818 0zm6.135 3.302a.908.908 0 1 0-1.288-1.282l-.345.347a.908.908 0 0 0 1.287 1.282zm-1.647 11.234a.905.905 0 0 0-.002 1.274l.354.358a.906.906 0 1 0 1.284-1.279l-.356-.355a.905.905 0 0 0-1.28.002m2.789-6.36a.913.913 0 1 0 0 1.827h.9a.913.913 0 1 0 0-1.826zM10 4.522C6.99 4.52 4.545 6.977 4.545 10S6.991 15.48 10 15.48s5.454-2.457 5.454-5.48S13.01 4.52 10 4.52m-.91 14.57a.91.91 0 1 0 1.82 0v-.876a.91.91 0 1 0-1.82 0zm-6.137-3.303a.908.908 0 0 0 1.29 1.279l.35-.353a.908.908 0 0 0-1.291-1.278z"/></svg>