<svg xmlns="http://www.w3.org/2000/svg" fill="none" viewBox="0 0 36 36"><circle cx="18" cy="18" r="17.5" fill="#fff" stroke="#c4c4c4"/><path fill="#000069" d="M26 21.294v3.765c0 .25-.094.49-.26.666a.87.87 0 0 1-.629.275H10.89a.87.87 0 0 1-.628-.275.97.97 0 0 1-.261-.666v-3.765zm-12.444.941v1.882h2.667v-1.882zM26 20.354H10v-4.706h16zM13.556 18.94h2.667V17.06h-2.667zM25.11 10c.236 0 .462.1.628.275.167.177.261.417.261.666v3.765H10v-3.765c0-.25.094-.49.26-.666A.87.87 0 0 1 10.89 10zm-11.555 3.765h2.667v-1.882h-2.667z"/></svg>