<svg preserveAspectRatio="none" width="100%" height="100%" overflow="visible" style="display: block;" viewBox="0 0 20.8 20.8" fill="none" xmlns="http://www.w3.org/2000/svg">
<g id="&#229;&#142;&#134;&#229;&#143;&#178;&#229;&#175;&#185;&#232;&#175;&#157;">
<path id="Vector" d="M10.4 0.199805C16.0335 0.199805 20.6002 4.76654 20.6002 10.4C20.6002 16.0335 16.0335 20.6002 10.4 20.6002C4.76654 20.6002 0.199805 16.0335 0.199805 10.4C0.199805 4.76654 4.76654 0.199805 10.4 0.199805ZM10.4 2.26719C8.24299 2.26719 6.17426 3.12379 4.64902 4.64902C3.12379 6.17426 2.26719 8.24299 2.26719 10.4C2.26719 12.557 3.12379 14.6257 4.64902 16.151C6.17426 17.6762 8.24299 18.5328 10.4 18.5328C12.557 18.5328 14.6257 17.6762 16.151 16.151C17.6762 14.6257 18.5328 12.557 18.5328 10.4C18.5328 8.24299 17.6762 6.17426 16.151 4.64902C14.6257 3.12379 12.557 2.26719 10.4 2.26719Z" fill="var(--fill-0, #2036CA)" stroke="var(--stroke-0, #2036CA)" stroke-width="0.4"/>
<path id="Vector 174" d="M6.40195 17.9L3.90195 16.9L2.90195 14.4L1.90195 11.4V8.4L3.40195 5.9L4.90195 3.4L8.40195 2.4L11.902 1.4L15.402 3.9L18.402 5.9L19.402 8.9L18.402 12.9L16.902 15.9L14.402 17.9L9.90195 18.9L6.40195 17.9Z" fill="var(--fill-0, #2036CA)"/>
<path id="Vector_2" d="M11.4332 10.8084L13.4938 12.869C13.6843 13.0631 13.7907 13.3245 13.7896 13.5965C13.7885 13.8681 13.6794 14.1277 13.4879 14.3202L13.4889 14.3211C13.394 14.4174 13.2804 14.4942 13.1559 14.5467C13.0314 14.5992 12.8974 14.627 12.7623 14.6278C12.6274 14.6285 12.4937 14.6025 12.3688 14.5516C12.2437 14.5006 12.1298 14.4249 12.0338 14.3299L12.0328 14.329L9.6627 11.9608L9.66172 11.9598C9.56731 11.8644 9.49258 11.7511 9.44199 11.6268C9.3914 11.5024 9.36576 11.3686 9.3668 11.2342V6.23228L9.37168 6.13071C9.38145 6.02962 9.40597 5.92999 9.44492 5.83579C9.49682 5.71038 9.57346 5.59671 9.66953 5.50083L9.67051 5.49888C9.81542 5.35647 9.99942 5.26041 10.1988 5.22153C10.3985 5.18271 10.6057 5.20327 10.7936 5.2811C10.9814 5.35894 11.1427 5.49044 11.2564 5.65903C11.37 5.82758 11.4315 6.02609 11.4332 6.22935V10.8084Z" fill="var(--fill-0, white)" stroke="var(--stroke-0, white)" stroke-width="0.4"/>
</g>
</svg>
