<svg xmlns="http://www.w3.org/2000/svg" width="11" height="13" viewBox="0 0 11 13" fill="none">
  <path
    d="M1 9.80769C1 10.8813 1.87826 11.76 2.95192 11.76H8.04808C9.12174 11.76 10 10.8813 10 9.80769V1.43231C10 0.358655 9.12174 -0.52 8.04808 -0.52H2.95192C1.87826 -0.52 1 0.358655 1 1.43231V9.80769ZM10 0.240385H7.56058L6.86731 -0.452885C6.69135 -0.628846 6.4375 -0.736538 6.18365 -0.736538H4.81635C4.5625 -0.736538 4.30865 -0.628846 4.13269 -0.452885L3.43942 0.240385H1C0.463462 0.240385 0.0240383 0.679808 0.0240383 1.21635C0.0240383 1.75288 0.463462 2.19231 1 2.19231H10C10.5365 2.19231 10.9759 1.75288 10.9759 1.21635C10.9759 0.679808 10.5365 0.240385 10 0.240385Z"
    fill="#FC5A5A"
  />
</svg>
