<svg preserveAspectRatio="none" width="100%" height="100%" overflow="visible" style="display: block;" viewBox="0 0 16.0001 16.0852" fill="none" xmlns="http://www.w3.org/2000/svg">
<g id="&#229;&#164;&#141;&#229;&#136;&#182;">
<path id="Vector" d="M13.4796 12.403C13.2543 12.403 11.7553 12.403 11.7553 12.403C11.7553 12.403 11.5065 11.7788 11.5065 11.5535C11.5065 11.3282 11.7553 10.704 11.7553 10.704C11.7553 10.704 13.2543 10.704 13.4796 10.704C13.6975 10.704 13.9064 10.6175 14.0604 10.4634C14.2145 10.3094 14.301 10.1004 14.301 9.8826V2.52037C14.301 2.30252 14.2145 2.0936 14.0604 1.93956C13.9064 1.78551 13.6975 1.69898 13.4796 1.69898H6.1174C5.89956 1.69898 5.69063 1.78551 5.53659 1.93956C5.38255 2.0936 5.29601 2.30252 5.29601 2.52037C5.29601 2.74567 5.29601 4.99382 5.29601 4.99382C5.29601 4.99382 4.67182 5.24263 4.44652 5.24263C4.22122 5.24263 3.59703 4.99382 3.59703 4.99382C3.59703 4.99382 3.59703 2.74567 3.59703 2.52037C3.59852 1.85238 3.86453 1.21218 4.33687 0.739839C4.80921 0.267499 5.44941 0.00148409 6.1174 0H13.4796C14.1476 0.00148409 14.7878 0.267499 15.2602 0.739839C15.7325 1.21218 15.9985 1.85238 16 2.52037V9.8826C15.9985 10.5506 15.7325 11.1908 15.2602 11.6631C14.7878 12.1355 14.1476 12.4015 13.4796 12.403Z" fill="var(--fill-0, white)"/>
<path id="Vector_2" d="M9.71293 16.0852H2.66196C2.31226 16.0856 1.96591 16.0171 1.64275 15.8834C1.31958 15.7498 1.02596 15.5538 0.778682 15.3065C0.531408 15.0592 0.335348 14.7656 0.201729 14.4424C0.0681106 14.1193 -0.000439882 13.7729 3.80334e-06 13.4232V6.34415C-0.000587843 5.99436 0.0678533 5.64788 0.201406 5.32459C0.334958 5.0013 0.530995 4.70754 0.778284 4.46015C1.02557 4.21275 1.31925 4.01659 1.64249 3.8829C1.96572 3.74921 2.31216 3.68063 2.66196 3.68107H9.71293C10.0626 3.68063 10.409 3.74918 10.7321 3.8828C11.0553 4.01641 11.3489 4.21248 11.5962 4.45975C11.8435 4.70702 12.0395 5.00065 12.1732 5.32381C12.3068 5.64698 12.3753 5.99333 12.3749 6.34302V13.4221C12.403 14.8952 11.186 16.0852 9.71293 16.0852ZM2.66196 5.38005C2.5352 5.379 2.40951 5.40319 2.2922 5.45121C2.1749 5.49924 2.06832 5.57013 1.97869 5.65976C1.88906 5.74939 1.81817 5.85596 1.77015 5.97327C1.72212 6.09058 1.69793 6.21627 1.69898 6.34302V13.4221C1.69793 13.5488 1.72212 13.6745 1.77015 13.7918C1.81817 13.9091 1.88906 14.0157 1.97869 14.1054C2.06832 14.195 2.1749 14.2659 2.2922 14.3139C2.40951 14.3619 2.5352 14.3861 2.66196 14.3851H9.71293C9.83968 14.3861 9.96537 14.3619 10.0827 14.3139C10.2 14.2659 10.3066 14.195 10.3962 14.1054C10.4858 14.0157 10.5567 13.9091 10.6047 13.7918C10.6528 13.6745 10.677 13.5488 10.6759 13.4221V6.34302C10.677 6.21627 10.6528 6.09058 10.6047 5.97327C10.5567 5.85596 10.4858 5.74939 10.3962 5.65976C10.3066 5.57013 10.2 5.49924 10.0827 5.45121C9.96537 5.40319 9.83968 5.379 9.71293 5.38005H2.66196Z" fill="var(--fill-0, white)"/>
<path id="Vector_3" d="M9.71293 16.0852H2.66196C2.31226 16.0857 1.96591 16.0171 1.64275 15.8835C1.31958 15.7499 1.02596 15.5538 0.778682 15.3066C0.531408 15.0593 0.335348 14.7657 0.201729 14.4425C0.0681106 14.1193 -0.000439882 13.773 3.80334e-06 13.4233V6.34423C-0.000587843 5.99444 0.0678533 5.64797 0.201406 5.32468C0.334958 5.00138 0.530995 4.70762 0.778284 4.46023C1.02557 4.21284 1.31925 4.01668 1.64249 3.88299C1.96572 3.7493 2.31216 3.68071 2.66196 3.68115H9.71293C10.0626 3.68071 10.409 3.74926 10.7321 3.88288C11.0553 4.0165 11.3489 4.21256 11.5962 4.45983C11.8435 4.70711 12.0395 5.00073 12.1732 5.3239C12.3068 5.64706 12.3753 5.99341 12.3749 6.34311V13.4222C12.403 14.8953 11.186 16.0852 9.71293 16.0852ZM2.66196 5.38013C2.5352 5.37908 2.40951 5.40327 2.2922 5.4513C2.1749 5.49932 2.06832 5.57021 1.97869 5.65984C1.88906 5.74947 1.81817 5.85605 1.77015 5.97336C1.72212 6.09066 1.69793 6.21636 1.69898 6.34311V13.4222C1.69793 13.5489 1.72212 13.6746 1.77015 13.7919C1.81817 13.9092 1.88906 14.0158 1.97869 14.1054C2.06832 14.1951 2.1749 14.266 2.2922 14.314C2.40951 14.362 2.5352 14.3862 2.66196 14.3851H9.71293C9.83968 14.3862 9.96537 14.362 10.0827 14.314C10.2 14.266 10.3066 14.1951 10.3962 14.1054C10.4858 14.0158 10.5567 13.9092 10.6047 13.7919C10.6528 13.6746 10.677 13.5489 10.6759 13.4222V6.34311C10.677 6.21636 10.6528 6.09066 10.6047 5.97336C10.5567 5.85605 10.4858 5.74947 10.3962 5.65984C10.3066 5.57021 10.2 5.49932 10.0827 5.4513C9.96537 5.40327 9.83968 5.37908 9.71293 5.38013H2.66196Z" fill="var(--fill-0, white)"/>
</g>
</svg>
