<svg preserveAspectRatio="none" width="100%" height="100%" overflow="visible" style="display: block;" viewBox="0 0 15.4469 16.0002" fill="none" xmlns="http://www.w3.org/2000/svg">
<g id="&#228;&#191;&#174;&#230;&#148;&#185;">
<path id="Vector" d="M8.45835 0V1.875H3.76471C3.26547 1.875 2.78669 2.07254 2.43368 2.42417C2.08067 2.77581 1.88235 3.25272 1.88235 3.75V12.2501C1.88235 12.7474 2.08067 13.2243 2.43368 13.5759C2.78669 13.9275 3.26547 14.1251 3.76471 14.1251H11.2941C11.7933 14.1251 12.2721 13.9275 12.6251 13.5759C12.9782 13.2243 13.1765 12.7474 13.1765 12.2501V7.55415H15.0588V12.2501C15.0588 13.2446 14.6622 14.1985 13.9562 14.9017C13.2501 15.605 12.2926 16.0001 11.2941 16.0001H3.76471C2.76624 16.0001 1.80868 15.605 1.10266 14.9017C0.396638 14.1985 0 13.2446 0 12.2501V3.75C0 2.75544 0.396638 1.80161 1.10266 1.09835C1.80868 0.395088 2.76624 0 3.76471 0H8.45835Z" fill="var(--fill-0, #C2C9DA)"/>
<path id="Vector_2" d="M6.06429 11.0126L4.78711 9.63446L14.1697 1.00008L15.4469 2.37821L6.06429 11.0126Z" fill="var(--fill-0, #C2C9DA)"/>
</g>
</svg>
