<svg preserveAspectRatio="none" width="100%" height="100%" overflow="visible" style="display: block;" viewBox="0 0 20 20.0006" fill="none" xmlns="http://www.w3.org/2000/svg">
<g id="&#230;&#150;&#176;&#229;&#187;&#186;&#229;&#175;&#185;&#232;&#175;&#157;">
<path id="Vector" d="M9.99969 0C11.3129 -1.95691e-08 12.6133 0.258666 13.8266 0.761228C15.0399 1.26379 16.1424 2.00041 17.071 2.92902C17.9996 3.85764 18.7362 4.96006 19.2388 6.17336C19.7413 7.38665 20 8.68705 20 10.0003C20 11.3136 19.7413 12.614 19.2388 13.8273C18.7362 15.0406 17.9996 16.143 17.071 17.0716C16.1424 18.0002 15.0399 18.7368 13.8266 19.2394C12.6133 19.742 11.3129 20.0006 9.99969 20.0006H1.87443C1.69343 20.0002 1.51594 19.9506 1.36089 19.8573C1.20583 19.7639 1.07903 19.6302 0.994006 19.4704C0.90898 19.3106 0.868915 19.1307 0.878084 18.9499C0.887253 18.7692 0.945313 18.5943 1.04607 18.4439L1.93277 17.1222C2.06271 16.9288 2.12818 16.6992 2.11979 16.4663C2.11141 16.2334 2.02962 16.0091 1.8861 15.8255L1.73776 15.6338C0.713148 14.131 0.117784 12.3773 0.0157506 10.5613C-0.0862829 8.74534 0.308878 6.93593 1.1587 5.32783C2.00852 3.71973 3.28082 2.37386 4.83865 1.43506C6.39648 0.496271 8.18085 0.000114687 9.99969 0ZM9.99969 1.71339C8.49923 1.71337 7.02692 2.12073 5.73987 2.892C4.45282 3.66328 3.39932 4.76952 2.69179 6.09269C1.98427 7.41586 1.64926 8.90629 1.72253 10.405C1.7958 11.9036 2.27459 13.3543 3.1078 14.6021L3.23614 14.7705C3.98616 15.7338 4.0345 17.0672 3.35614 18.0772L3.21281 18.2872H9.99969C12.1423 18.2871 14.2016 17.4571 15.7454 15.9714C17.2893 14.4856 18.1976 12.4597 18.2799 10.3187L18.2866 10.0003C18.2866 7.80248 17.4135 5.69467 15.8594 4.14057C14.3053 2.58647 12.1975 1.71339 9.99969 1.71339Z" fill="var(--fill-0, #2036CA)"/>
<path id="Vector 120" d="M6.99805 19H1.99805L2.99805 16.5L2.49805 14.5L1.49805 12.5V8V6.5L3.99805 3L8.49805 1.5L10.998 1L14.498 2.5L16.498 4L18.498 7V10.5V13.5L14.998 17L11.998 19H6.99805Z" fill="var(--fill-0, #2036CA)"/>
<path id="Vector_2" d="M9.99921 5.4917C10.5242 5.4917 10.9526 5.91838 10.9526 6.4434V9.04681H13.556C13.8088 9.04681 14.0513 9.14725 14.2301 9.32604C14.4089 9.50483 14.5094 9.74733 14.5094 10.0002C14.5094 10.253 14.4089 10.4955 14.2301 10.6743C14.0513 10.8531 13.8088 10.9535 13.556 10.9535L10.9492 10.9502V13.5536C10.9492 13.8062 10.8489 14.0485 10.6703 14.2272C10.4916 14.4058 10.2493 14.5061 9.99671 14.5061C9.74409 14.5061 9.50181 14.4058 9.32317 14.2272C9.14454 14.0485 9.04418 13.8062 9.04418 13.5536V10.9519H6.44244C6.314 10.9572 6.1858 10.9366 6.06554 10.8911C5.94529 10.8457 5.83547 10.7764 5.74269 10.6874C5.64991 10.5984 5.57608 10.4916 5.52565 10.3734C5.47522 10.2551 5.44922 10.1279 5.44922 9.99934C5.44922 9.87079 5.47522 9.74356 5.52565 9.62532C5.57608 9.50707 5.64991 9.40024 5.74269 9.31126C5.83547 9.22228 5.94529 9.15299 6.06554 9.10754C6.1858 9.06209 6.314 9.04144 6.44244 9.04681H9.04918V6.44173C9.04918 5.91838 9.4742 5.4917 10.0009 5.4917H9.99921Z" fill="var(--fill-0, white)"/>
</g>
</svg>
