<svg preserveAspectRatio="none" width="100%" height="100%" overflow="visible" style="display: block;" viewBox="0 0 24 24" fill="none" xmlns="http://www.w3.org/2000/svg">
<g id="&#229;&#136;&#183;&#230;&#150;&#176;">
<rect width="24" height="24" rx="3" fill="var(--fill-0, #2036CA)"/>
<path id="&#233;&#135;&#141;&#230;&#150;&#176;&#229;&#138;&#160;&#232;&#189;&#189;" d="M7.41165 5.44691C6.66786 5.96722 6.02251 6.60784 5.49279 7.35003C4.42867 8.83908 3.90364 10.6609 4.01458 12.4781C4.03802 12.8703 4.37554 13.1687 4.76775 13.1453C5.15996 13.1219 5.45841 12.7844 5.43498 12.3922C5.2459 9.28127 7.29759 6.44378 10.3149 5.64379C12.6276 5.03129 15.0605 5.72035 16.7044 7.40471L15.5949 8.00159L19.0436 10.1328L19.167 6.08128L17.9998 6.7094C17.0872 5.67504 15.9247 4.89535 14.6121 4.4391C13.1073 3.9188 11.4963 3.85942 9.95086 4.26879C9.03519 4.51098 8.18045 4.90785 7.41165 5.44691ZM4.83182 17.9187L5.99907 17.2922C6.91162 18.3265 8.07419 19.1062 9.38677 19.5609C10.8915 20.0812 12.5026 20.1406 14.048 19.7312C14.6496 19.5718 15.2246 19.3468 15.7668 19.0578C16.0497 18.9078 16.3231 18.739 16.5872 18.5547C17.331 18.0343 17.9748 17.3953 18.5045 16.6547C19.5686 15.1672 20.0952 13.3469 19.9858 11.5313C19.9624 11.1391 19.6249 10.8406 19.2327 10.8641C18.8404 10.8875 18.542 11.225 18.5654 11.6172C18.7498 14.7219 16.6966 17.5562 13.6839 18.3562C11.3713 18.9687 8.93831 18.2797 7.29446 16.5953L8.4039 15.9984L4.95526 13.8672L4.83182 17.9187Z" fill="var(--fill-0, white)" stroke="var(--stroke-0, white)" stroke-width="0.4"/>
</g>
</svg>
