<svg preserveAspectRatio="none" width="100%" height="100%" overflow="visible" style="display: block;" viewBox="0 0 20.8 20.8" fill="none" xmlns="http://www.w3.org/2000/svg">
<g id="&#229;&#142;&#134;&#229;&#143;&#178;&#229;&#175;&#185;&#232;&#175;&#157;">
<path id="Vector" d="M10.4 0.199805C16.0335 0.199805 20.6002 4.76654 20.6002 10.4C20.6002 16.0335 16.0335 20.6002 10.4 20.6002C4.76654 20.6002 0.199805 16.0335 0.199805 10.4C0.199805 4.76654 4.76654 0.199805 10.4 0.199805ZM10.4 2.26719C8.24299 2.26719 6.17426 3.12379 4.64902 4.64902C3.12379 6.17426 2.26719 8.24299 2.26719 10.4C2.26719 12.557 3.12379 14.6257 4.64902 16.151C6.17426 17.6762 8.24299 18.5328 10.4 18.5328C12.557 18.5328 14.6257 17.6762 16.151 16.151C17.6762 14.6257 18.5328 12.557 18.5328 10.4C18.5328 8.24299 17.6762 6.17426 16.151 4.64902C14.6257 3.12379 12.557 2.26719 10.4 2.26719ZM11.4332 10.8082L13.4938 12.8688C13.6844 13.063 13.7908 13.3251 13.7896 13.5973C13.7884 13.8689 13.6795 14.1285 13.4879 14.3209C13.393 14.4171 13.2804 14.494 13.1559 14.5465C13.0313 14.599 12.8974 14.6267 12.7623 14.6275C12.6274 14.6283 12.4937 14.6023 12.3688 14.5514C12.2751 14.5132 12.1873 14.4615 12.109 14.398L12.0328 14.3297L9.6627 11.9605L9.66172 11.9596C9.5673 11.8641 9.49257 11.751 9.44199 11.6266C9.3914 11.5021 9.36576 11.3683 9.3668 11.234V6.23203C9.3665 6.09636 9.39312 5.96192 9.44492 5.83652C9.49685 5.71097 9.57334 5.59655 9.66953 5.50059L9.67051 5.49961C9.81544 5.35715 9.99936 5.26017 10.1988 5.22129C10.3985 5.18247 10.6057 5.20303 10.7936 5.28086C10.9813 5.35864 11.1418 5.49032 11.2555 5.65879C11.3692 5.82736 11.4314 6.02579 11.4332 6.2291V10.8082Z" fill="var(--fill-0, #8A92A6)" stroke="var(--stroke-0, #8A92A6)" stroke-width="0.4"/>
</g>
</svg>
