<svg viewBox="0 0 16.255 16.7223" fill="none" xmlns="http://www.w3.org/2000/svg">
<path d="M15.9639 15.0283C16.3546 15.4191 16.3517 16.0496 15.957 16.4355C15.5624 16.8212 14.9257 16.8174 14.5352 16.4268L11.4561 13.3477L12.8857 11.9502L15.9639 15.0283ZM6.95605 0C10.7975 0 13.9121 3.11516 13.9121 6.95703C13.9121 10.7989 10.7975 13.9141 6.95605 13.9141C3.11465 13.914 0 10.7989 0 6.95703C0 3.11518 3.11465 0 6.95605 0ZM6.95605 1.6377C4.01955 1.63773 1.6377 4.02005 1.6377 6.95703C1.63771 9.89401 4.01956 12.2763 6.95605 12.2764C9.89258 12.2764 12.2744 9.89403 12.2744 6.95703C12.2744 4.02003 9.89259 1.6377 6.95605 1.6377Z" fill="#21243D"/>
</svg>
