<svg preserveAspectRatio="xMidYMid meet" viewBox="0 0 11.3488 14.0273" fill="none" xmlns="http://www.w3.org/2000/svg">
<path id="&#228;&#186;&#186;" d="M5.67441 8.01367C8.22983 8.01368 9.91531 9.42972 10.9146 10.7266C11.4735 11.4521 11.4635 12.3134 11.0523 12.9746C10.6552 13.6131 9.91406 14.0272 9.07187 14.0273H2.27695C1.43476 14.0272 0.693676 13.6131 0.296483 12.9746C-0.11466 12.3134 -0.124677 11.4521 0.434178 10.7266C1.43352 9.42972 3.11898 8.01367 5.67441 8.01367ZM5.93027 0C7.91183 0 9.51812 1.60635 9.51816 3.58789C9.51816 5.56947 7.91186 7.17578 5.93027 7.17578C3.94887 7.17557 2.34238 5.56934 2.34238 3.58789C2.34243 1.60648 3.9489 0.000215934 5.93027 0Z" fill="#A6A6A6"/>
</svg>
