<svg viewBox="0 0 16 16" fill="none" xmlns="http://www.w3.org/2000/svg">
<path d="M2.7704 1.94641C4.22205 0.688536 6.07919 -0.00267189 8 7.76213e-06C12.4184 7.76213e-06 16 3.58161 16 8.00001C16 9.70881 15.464 11.2928 14.552 12.592L12 8.00001H14.4C14.4001 6.74531 14.0314 5.51825 13.3397 4.47141C12.6481 3.42457 11.6639 2.60413 10.5097 2.11211C9.35554 1.62008 8.08217 1.47817 6.84797 1.70402C5.61376 1.92987 4.47316 2.51353 3.568 3.38241L2.7704 1.94641ZM13.2296 14.0536C11.778 15.3115 9.92081 16.0027 8 16C3.5816 16 0 12.4184 0 8.00001C0 6.29121 0.536 4.70721 1.448 3.40801L4 8.00001H1.6C1.5999 9.25471 1.9686 10.4818 2.66027 11.5286C3.35194 12.5754 4.33605 13.3959 5.49026 13.8879C6.64446 14.3799 7.91783 14.5218 9.15203 14.296C10.3862 14.0701 11.5268 13.4865 12.432 12.6176L13.2296 14.0536Z" fill="#21243D"/>
</svg>
